<?xml version="1.0" standalone="no"?>
<!DOCTYPE svg PUBLIC "-//W3C//DTD SVG 20010904//EN"
 "http://www.w3.org/TR/2001/REC-SVG-20010904/DTD/svg10.dtd">
<svg version="1.0" xmlns="http://www.w3.org/2000/svg"
 width="1267.000000pt" height="790.000000pt" viewBox="0 0 1267.000000 790.000000"
 preserveAspectRatio="xMidYMid meet">

<g transform="translate(0.000000,790.000000) scale(0.100000,-0.100000)"
fill="#000000" stroke="none">
<path d="M560 7891 c0 -16 24 -27 159 -76 74 -27 144 -59 155 -70 23 -23 163
-77 261 -101 33 -8 125 -38 205 -66 128 -44 148 -54 167 -83 17 -26 39 -39
110 -64 158 -58 164 -59 225 -28 52 26 54 26 103 12 81 -25 78 -21 59 -56 -21
-41 -12 -49 69 -59 36 -4 70 -11 76 -14 19 -12 20 11 0 27 -10 9 -19 24 -19
32 0 20 30 32 40 15 12 -19 105 -25 150 -10 34 11 46 11 83 -4 24 -9 53 -25
63 -35 20 -18 58 -41 68 -41 3 0 6 7 6 15 0 22 38 18 45 -4 8 -26 21 -29 83
-21 49 6 55 5 75 -20 32 -38 54 -43 98 -23 27 12 39 23 39 37 0 12 5 28 10 36
9 13 11 13 20 0 5 -8 10 -20 10 -25 0 -6 20 -28 45 -48 37 -31 46 -35 51 -22
4 9 -1 24 -10 34 -15 16 -22 41 -11 41 12 0 55 -24 55 -32 0 -4 13 -22 30 -40
16 -17 30 -39 30 -48 0 -31 34 -57 96 -74 70 -19 77 -19 69 -7 -3 5 4 13 16
16 36 12 54 -35 22 -55 -17 -9 -17 -11 3 -28 12 -10 26 -27 32 -39 8 -14 26
-24 53 -28 38 -7 79 -35 90 -61 6 -15 93 -70 123 -78 15 -4 31 -17 36 -29 8
-21 9 -21 9 4 1 15 8 33 17 40 14 11 19 9 34 -11 10 -13 21 -43 24 -65 7 -40
7 -40 129 -102 95 -47 135 -62 182 -66 48 -5 63 -11 75 -29 41 -62 116 -103
157 -85 18 8 27 6 40 -6 10 -8 30 -18 45 -22 27 -7 100 -94 113 -134 8 -25 44
-46 111 -62 27 -7 52 -17 56 -23 5 -8 11 -7 20 2 6 6 34 12 60 12 45 0 48 -2
48 -25 0 -14 5 -25 10 -25 6 0 10 11 10 25 l0 25 689 0 689 0 7 -37 c4 -21 12
-41 17 -44 6 -4 11 -47 12 -100 1 -64 5 -94 14 -97 7 -2 13 7 14 25 0 15 2 33
3 38 2 6 3 22 4 38 1 36 18 35 26 -3 8 -35 11 -36 33 -14 14 15 17 15 29 -2 7
-10 13 -13 13 -7 0 13 37 24 56 16 8 -3 14 -19 14 -38 0 -20 6 -35 15 -39 9
-3 22 -20 30 -38 16 -39 5 -50 -41 -42 -21 4 -34 1 -43 -10 -8 -10 -29 -16
-52 -16 -21 0 -40 -4 -43 -8 -3 -5 13 -26 35 -48 36 -34 42 -37 52 -23 9 15
14 15 59 1 l48 -16 0 -56 c0 -54 -1 -56 -32 -65 -38 -12 -66 -56 -67 -105 0
-19 -26 -117 -58 -218 -42 -135 -54 -185 -45 -191 13 -8 6 -67 -8 -76 -4 -2 0
-41 9 -85 14 -75 14 -86 -3 -148 -10 -37 -20 -69 -22 -72 -3 -2 -126 -4 -274
-5 l-269 0 -11 -45 c-16 -69 -31 -192 -25 -199 4 -3 100 -4 216 -2 115 1 209
1 209 -2 0 -3 -52 -110 -115 -238 l-115 -234 -64 -16 c-56 -14 -66 -15 -70 -2
-10 25 -7 93 4 93 13 0 13 37 -1 45 -6 4 -9 34 -8 71 1 35 -1 67 -4 71 -4 3
-7 46 -7 95 0 65 -3 88 -13 88 -10 0 -12 -22 -9 -95 l4 -95 -146 0 c-121 0
-146 -2 -146 -15 0 -8 8 -22 19 -32 25 -24 54 -83 41 -83 -5 0 -10 -11 -10
-25 0 -15 6 -25 14 -25 10 0 23 -26 38 -72 12 -40 23 -74 24 -76 1 -2 44 4 95
12 52 8 141 23 199 32 l105 16 58 56 c32 32 65 71 74 87 9 17 48 62 87 100 52
51 77 84 91 120 10 28 36 88 58 135 75 161 77 168 87 293 6 67 18 178 27 246
l16 123 118 -3 c97 -3 120 -7 138 -23 11 -10 27 -16 36 -12 48 18 -55 46 -170
46 l-75 0 0 83 c0 155 12 297 25 297 17 0 27 42 13 51 -15 9 -1 29 21 29 24 0
30 8 24 31 -3 10 -14 19 -24 19 -14 0 -19 7 -19 30 0 17 2 30 3 30 15 0 79
-39 110 -67 20 -18 42 -33 47 -33 12 0 12 -2 1 37 -8 26 -6 37 11 58 11 14 18
29 15 32 -3 3 -29 0 -57 -6 -68 -15 -70 -14 -70 9 0 11 -6 20 -13 20 -14 0
-37 40 -37 65 0 14 22 19 75 16 11 0 29 6 39 14 16 12 17 17 6 30 -15 19 -44
19 -62 2 -7 -8 -26 -17 -41 -21 -26 -6 -27 -5 -27 39 0 42 2 45 26 45 14 0 34
-5 45 -10 15 -8 19 -7 19 5 0 11 11 15 46 15 25 0 53 -4 63 -9 16 -9 84 0 121
16 8 4 49 12 91 18 42 7 102 24 134 39 31 14 84 30 116 35 32 5 68 15 79 21
32 17 264 52 353 53 47 0 82 -4 89 -11 7 -7 26 -12 42 -12 52 -1 173 -34 195
-54 11 -10 17 -24 14 -32 -7 -19 25 -18 72 2 36 14 38 14 52 -5 8 -12 19 -21
24 -21 6 0 22 -9 35 -19 20 -16 35 -18 78 -14 34 4 56 2 60 -6 12 -19 53 -12
68 11 11 16 25 22 57 23 28 1 48 8 63 22 l21 21 21 -22 c19 -21 26 -22 73 -14
50 9 53 12 64 49 7 21 16 39 20 39 5 0 24 15 42 34 24 23 48 36 78 41 24 4 53
12 64 18 11 6 59 12 108 14 73 3 87 1 87 -12 0 -22 44 -19 66 6 28 31 42 36
139 53 79 14 92 14 112 1 12 -8 42 -15 67 -15 25 0 48 -4 51 -10 3 -5 15 -10
25 -10 11 0 24 -9 30 -20 6 -11 21 -20 33 -20 29 -1 83 -48 96 -83 6 -16 11
-42 11 -58 0 -31 26 -41 37 -14 3 9 13 15 22 13 9 -1 31 8 48 20 32 22 33 23
88 7 57 -17 197 -17 224 0 8 4 16 2 21 -5 11 -18 135 6 180 36 19 13 65 28
103 35 37 7 67 16 67 21 0 4 6 8 13 8 7 0 29 11 49 25 43 29 199 65 238 55 14
-4 38 -3 55 2 44 12 65 10 65 -6 0 -8 4 -17 9 -21 5 -3 87 13 181 36 156 37
178 45 235 85 35 24 66 44 69 44 4 0 19 9 34 19 15 11 101 38 191 61 174 44
194 52 209 85 7 15 29 26 81 39 57 15 77 26 99 51 22 28 45 38 136 65 98 29
110 31 118 16 15 -28 59 -19 98 19 31 31 58 42 186 79 l149 43 3 512 2 511
-522 0 -521 0 -44 -26 c-52 -30 -160 -55 -185 -43 -9 5 -31 9 -48 9 -22 0 -39
9 -59 30 l-27 30 -1570 -4 c-863 -2 -1576 -4 -1584 -5 -8 -1 -31 1 -52 5 -31
5 -37 3 -43 -15 -3 -12 -19 -29 -33 -39 -15 -9 -39 -28 -54 -41 -45 -39 -130
-86 -182 -101 -39 -11 -54 -21 -75 -54 -44 -69 -93 -125 -127 -145 -48 -29
-136 -46 -162 -32 -11 6 -36 11 -56 11 -19 0 -73 14 -120 31 -76 27 -86 34
-95 62 -12 37 -84 87 -123 87 -33 0 -138 -53 -168 -85 -13 -14 -31 -25 -40
-25 -8 0 -26 -7 -39 -16 -38 -27 -154 -47 -202 -34 -33 9 -50 8 -91 -6 -52
-17 -72 -16 -168 11 -30 8 -82 15 -115 15 -81 0 -137 36 -194 123 -23 35 -41
67 -41 71 0 12 -30 39 -68 59 -19 10 -53 30 -76 45 -23 14 -65 38 -93 54 l-53
28 -1395 0 -1396 0 48 -42 c62 -53 140 -126 170 -158 12 -14 28 -29 34 -35 6
-5 31 -29 56 -52 24 -24 48 -43 53 -43 5 0 32 -42 60 -92 28 -51 56 -100 62
-110 9 -12 9 -20 -1 -32 -17 -20 -64 -20 -116 0 -22 9 -80 20 -130 24 -49 4
-108 12 -129 16 -29 5 -37 4 -32 -4 5 -8 0 -12 -13 -12 -11 0 -22 9 -26 19 -4
13 -28 26 -78 41 -83 25 -147 56 -147 70 0 6 11 8 25 4 25 -6 35 9 15 21 -8 5
-7 12 2 22 11 14 10 15 -9 9 -20 -6 -21 -4 -17 21 7 36 14 43 14 13 0 -18 3
-20 13 -11 8 6 17 8 20 4 4 -3 7 0 7 7 0 11 4 10 17 -3 16 -16 16 -18 -5 -33
-12 -8 -22 -24 -22 -35 0 -20 2 -19 31 5 17 14 37 26 44 26 8 0 19 9 25 21 9
16 8 26 -4 44 -15 22 -14 24 17 34 l32 12 -30 19 c-18 12 -24 20 -14 20 8 0
21 -6 28 -12 11 -11 13 -10 9 2 -3 9 -22 17 -49 21 -24 3 -38 7 -31 7 14 2 17
42 2 42 -5 0 -14 -8 -20 -17 -11 -17 -11 -17 -6 0 3 9 0 17 -6 17 -7 0 -6 5 2
15 7 8 21 15 31 15 18 0 35 17 26 26 -3 3 -15 1 -26 -6 -16 -8 -21 -8 -21 2
-1 8 -6 6 -15 -5 -9 -13 -18 -16 -29 -10 -14 8 -14 10 2 23 9 8 28 15 41 15
13 0 26 6 29 13 3 9 -2 10 -20 4 -12 -5 -28 -7 -33 -5 -6 2 -24 -10 -40 -27
-25 -26 -27 -32 -15 -40 9 -6 16 -6 18 0 2 6 9 10 15 10 18 0 -10 -23 -33 -27
-17 -2 -20 3 -20 34 0 27 -3 34 -11 26 -6 -6 -17 -9 -24 -7 -7 3 -17 -1 -21
-8 -11 -17 -14 -39 -5 -34 14 9 71 -27 71 -45 0 -9 6 -24 14 -31 14 -15 32
-78 21 -78 -15 0 -31 26 -27 45 5 18 4 19 -13 5 -17 -14 -18 -13 -11 28 6 39
5 42 -11 33 -13 -7 -23 -5 -38 7 -11 9 -17 13 -13 8 4 -5 3 -15 -3 -23 -9 -10
-7 -13 10 -13 14 0 20 -4 15 -12 -5 -8 -1 -9 12 -5 16 6 17 5 4 -5 -20 -17
-24 -78 -5 -78 8 0 19 8 24 18 10 16 10 16 11 0 0 -10 -5 -18 -11 -18 -8 0 -8
-4 0 -14 7 -9 8 -17 3 -20 -6 -3 -12 0 -15 7 -7 18 -46 15 -57 -3 -7 -12 -21
-11 -82 9 -215 68 -546 233 -590 294 l-20 27 -664 0 c-374 0 -664 -4 -664 -9z
m2175 -201 c3 -6 -1 -7 -9 -4 -18 7 -21 14 -7 14 6 0 13 -4 16 -10z m15 -30
c0 -12 -28 -25 -36 -17 -9 9 6 27 22 27 8 0 14 -5 14 -10z m76 1 c-3 -5 -15
-11 -26 -14 -17 -4 -19 -3 -9 9 12 15 44 20 35 5z m-23 -71 c3 -11 1 -23 -5
-26 -11 -7 -14 -5 -22 24 -5 16 -3 22 7 22 8 0 17 -9 20 -20z m-170 -90 c3
-10 -1 -24 -8 -30 -10 -8 -14 -3 -17 20 -5 34 16 43 25 10z m78 -177 c13 -16
12 -17 -3 -4 -10 7 -18 15 -18 17 0 8 8 3 21 -13z m4249 -458 c-9 -11 -9 -15
-1 -15 7 0 9 -4 6 -10 -4 -6 4 -9 17 -7 21 2 23 -3 26 -45 2 -38 -1 -49 -19
-61 -25 -18 -44 -13 -82 21 -27 26 -29 57 -3 74 6 5 7 8 1 8 -12 0 46 49 59
50 5 0 3 -7 -4 -15z m-222 -69 c4 -74 -6 -96 -44 -96 -18 0 -24 6 -24 21 0 15
-5 19 -19 14 -33 -10 -54 5 -47 36 5 24 2 29 -14 29 -16 0 -20 -7 -20 -30 0
-27 -3 -30 -27 -28 -16 1 -37 -2 -49 -5 -14 -5 -30 0 -49 15 -16 13 -26 17
-22 11 5 -7 -1 -16 -12 -22 -28 -15 -38 -14 -61 9 -16 16 -20 17 -20 5 0 -27
-48 -18 -64 13 l-15 27 -1 -27 c0 -18 -5 -28 -15 -28 -12 0 -15 13 -15 60 0
69 15 78 49 33 l20 -28 1 28 c0 39 34 33 38 -6 3 -24 5 -25 18 -12 18 18 55
20 72 3 9 -9 15 -9 24 0 18 18 65 15 77 -5 10 -17 10 -17 11 -1 0 14 11 17 70
16 73 0 85 -7 93 -48 2 -14 5 -2 6 26 0 28 4 54 8 58 17 17 28 -6 31 -68z
m-1078 39 c0 -33 37 -36 42 -3 2 12 9 23 16 26 9 3 12 -13 12 -57 0 -48 -3
-61 -15 -61 -9 0 -15 9 -15 25 0 18 -5 25 -20 25 -15 0 -20 -7 -20 -25 0 -16
-6 -25 -15 -25 -12 0 -15 13 -15 60 0 47 3 60 15 60 9 0 15 -9 15 -25z m120
15 c0 -5 -7 -10 -15 -10 -8 0 -15 5 -15 10 0 6 7 10 15 10 8 0 15 -4 15 -10z
m150 -50 c0 -47 -3 -60 -15 -60 -12 0 -15 13 -15 60 0 47 3 60 15 60 12 0 15
-13 15 -60z m46 44 c-3 -9 -6 -20 -6 -25 0 -5 -4 -9 -10 -9 -5 0 -10 11 -10
25 0 16 6 25 16 25 11 0 14 -5 10 -16z m-196 -59 c0 -33 -4 -45 -15 -45 -11 0
-15 12 -15 45 0 33 4 45 15 45 11 0 15 -12 15 -45z m348 -2 c2 -34 0 -43 -12
-43 -12 0 -16 10 -16 35 0 19 -4 35 -10 35 -5 0 -10 -16 -10 -35 0 -46 -27
-49 -32 -3 -4 46 -28 49 -28 4 0 -25 -4 -36 -15 -36 -11 0 -15 12 -15 45 l0
45 68 -2 67 -3 3 -42z m-300 -45 c-2 -13 -9 -23 -17 -23 -8 0 -16 10 -17 23
-3 17 1 22 17 22 15 0 20 -5 17 -22z m-688 -153 c0 -30 5 -55 10 -55 6 0 10
25 10 55 0 42 3 55 15 55 11 0 15 -13 15 -54 0 -34 5 -56 13 -59 9 -4 9 -7 0
-17 -9 -10 -16 -10 -26 -2 -9 8 -17 8 -24 1 -5 -5 -17 -7 -26 -3 -24 9 -25
134 -2 134 12 0 15 -13 15 -55z m530 23 c0 -25 3 -29 12 -20 7 7 21 12 32 12
18 0 18 -1 1 -20 -17 -18 -17 -21 -1 -45 16 -24 16 -25 -3 -25 -11 0 -25 8
-30 18 -10 16 -10 16 -11 0 0 -10 -7 -18 -15 -18 -12 0 -15 14 -15 65 0 51 3
65 15 65 10 0 15 -10 15 -32z m400 12 c0 -13 7 -20 18 -20 26 0 42 -20 42 -52
0 -33 -28 -51 -65 -42 -23 6 -25 10 -25 70 0 50 3 64 15 64 8 0 15 -9 15 -20z
m560 -35 c0 -30 5 -55 10 -55 6 0 10 10 10 23 0 29 18 47 45 47 29 0 45 -19
45 -52 0 -35 -36 -56 -67 -39 -13 6 -23 7 -30 0 -5 -5 -17 -7 -26 -3 -24 9
-25 134 -2 134 12 0 15 -13 15 -55z m510 45 c0 -5 -7 -10 -15 -10 -8 0 -15 -4
-15 -10 0 -5 20 -10 45 -10 44 0 60 -12 30 -24 -9 -3 -15 -18 -15 -36 0 -20
-5 -30 -15 -30 -10 0 -15 11 -15 35 0 24 -5 35 -15 35 -10 0 -15 -11 -15 -35
0 -23 -5 -35 -14 -35 -20 0 -27 79 -9 108 13 22 53 31 53 12z m630 -54 c0 -61
-1 -64 -27 -69 -39 -7 -63 9 -63 41 0 32 16 52 42 52 11 0 18 7 18 20 0 11 7
20 15 20 12 0 15 -14 15 -64z m-2934 -7 c14 -34 18 -55 11 -58 -5 -2 -16 4
-22 13 -15 20 -41 21 -49 1 -3 -8 -12 -15 -20 -15 -13 0 -13 5 -1 39 34 98 49
101 81 20z m169 46 c0 -5 -15 -11 -32 -13 -38 -4 -45 -22 -8 -22 14 0 25 -4
25 -10 0 -5 -11 -10 -25 -10 -20 0 -25 -5 -25 -25 0 -16 -6 -25 -15 -25 -11 0
-15 13 -15 53 0 30 3 57 7 61 11 10 88 3 88 -9z m341 1 c25 -19 9 -34 -18 -17
-14 9 -23 10 -31 2 -7 -7 0 -15 26 -26 43 -18 50 -50 14 -66 -37 -17 -100 16
-68 36 5 3 12 1 16 -5 7 -12 45 -14 45 -2 0 5 -14 15 -32 23 -38 17 -44 31
-23 53 20 20 45 20 71 2z m461 -16 c3 -16 9 -30 13 -30 4 0 10 14 14 30 3 17
12 30 20 30 8 0 17 -13 21 -30 7 -32 25 -41 25 -12 0 24 16 46 28 38 6 -3 4
-26 -6 -61 -18 -65 -46 -76 -58 -22 l-7 32 -10 -32 c-16 -52 -41 -43 -59 22
-8 30 -13 57 -10 60 12 12 23 3 29 -25z m490 4 c34 -46 4 -94 -58 -94 l-39 0
0 61 0 62 42 -6 c23 -3 48 -14 55 -23z m1261 -37 c2 -46 0 -57 -13 -57 -12 0
-15 13 -15 61 0 81 24 77 28 -4z m262 53 c0 -5 -9 -10 -20 -10 -11 0 -20 5
-20 10 0 6 9 10 20 10 11 0 20 -4 20 -10z m-2410 -10 c0 -5 7 -10 15 -10 8 0
15 -5 15 -11 0 -8 4 -8 14 1 25 20 61 8 64 -20 2 -14 5 -32 8 -40 3 -8 5 -17
5 -20 -1 -9 -71 -9 -76 0 -4 6 -14 5 -25 -2 -14 -9 -22 -9 -33 0 -15 13 -28
77 -19 100 5 14 32 16 32 2z m-370 -46 c0 -45 24 -42 28 4 5 51 32 41 32 -12
0 -41 -2 -44 -31 -50 -42 -8 -59 8 -59 55 0 28 4 39 15 39 11 0 15 -11 15 -36z
m579 22 c9 -10 8 -15 -3 -19 -9 -4 -18 -2 -21 3 -9 15 -22 12 -29 -6 -8 -22
13 -49 28 -34 15 15 36 12 30 -5 -8 -20 -40 -28 -64 -15 -23 12 -28 58 -8 78
16 16 53 15 67 -2z m389 6 c19 -12 11 -72 -11 -84 -24 -12 -67 14 -67 42 0 37
46 62 78 42z m391 -4 c11 -10 13 -10 7 0 -4 7 -1 12 8 12 8 0 22 -12 29 -26
l14 -27 7 27 c3 14 13 26 21 26 19 0 19 -1 -1 -50 -18 -46 -39 -51 -56 -15
-11 25 -34 24 -24 -1 8 -22 -36 -39 -63 -25 -23 13 -29 59 -9 79 16 16 50 15
67 0z m180 -2 c18 -21 9 -67 -15 -78 -47 -22 -89 43 -52 80 16 16 53 15 67 -2z
m259 -3 c9 -16 11 -16 27 0 34 35 77 16 73 -32 -3 -43 -30 -58 -64 -36 -22 14
-26 14 -49 -1 -13 -8 -29 -13 -35 -9 -6 3 -10 -3 -10 -14 0 -12 -7 -21 -15
-21 -12 0 -15 14 -15 65 l0 65 40 0 c26 0 42 -5 48 -17z m182 7 c0 -5 -7 -10
-15 -10 -10 0 -15 -11 -15 -35 0 -24 -5 -35 -15 -35 -11 0 -15 12 -15 45 0 43
1 45 30 45 17 0 30 -4 30 -10z m270 -9 c16 -31 12 -49 -15 -67 -23 -15 -27
-15 -50 0 -14 9 -25 25 -25 36 0 45 69 69 90 31z m158 -28 c2 -34 0 -43 -12
-43 -12 0 -16 10 -16 35 0 19 -4 35 -10 35 -5 0 -10 -16 -10 -35 0 -46 -27
-49 -32 -3 -4 46 -28 49 -28 4 0 -25 -4 -36 -15 -36 -11 0 -15 12 -15 45 l0
45 68 -2 67 -3 3 -42z m212 28 c15 -29 13 -71 -4 -71 -9 0 -16 12 -18 32 -4
46 -28 49 -28 4 0 -25 -4 -36 -15 -36 -11 0 -15 12 -15 45 0 45 0 45 35 45 24
0 37 -6 45 -19z m160 -26 c0 -33 -4 -45 -15 -45 -11 0 -15 12 -15 45 0 33 4
45 15 45 11 0 15 -12 15 -45z m76 37 c7 -4 14 -25 15 -46 4 -37 3 -39 -26 -41
-49 -3 -55 3 -51 48 2 23 4 43 5 45 2 5 47 1 57 -6z m-1426 -773 c0 -24 -3
-30 -16 -25 -9 3 -27 9 -40 12 l-24 6 23 19 c35 29 57 25 57 -12z m-43 -261
c-3 -8 -6 -5 -6 6 -1 11 2 17 5 13 3 -3 4 -12 1 -19z m-847 -1347 c0 -5 3 -23
6 -40 6 -26 4 -31 -14 -31 -12 0 -22 9 -26 23 -11 41 -7 57 14 57 11 0 20 -4
20 -9z m40 -3 c0 -7 -4 -19 -9 -26 -6 -10 -10 -7 -13 12 -4 18 -1 26 8 26 8 0
14 -6 14 -12z m54 -4 c13 -34 7 -64 -14 -64 -17 0 -20 7 -20 40 0 41 21 57 34
24z m-169 -24 c-3 -5 -1 -11 5 -15 14 -9 13 -28 -2 -23 -7 3 -15 16 -19 30 -5
20 -4 25 7 21 8 -3 12 -9 9 -13z"/>
<path d="M6072 6556 c2 -15 8 -26 13 -26 15 0 12 43 -3 48 -10 3 -13 -4 -10
-22z"/>
<path d="M6676 6564 c-7 -19 12 -47 25 -38 5 3 9 16 9 30 0 27 -24 33 -34 8z"/>
<path d="M7707 6566 c-3 -8 0 -22 8 -33 13 -17 14 -17 20 0 8 20 0 47 -14 47
-5 0 -11 -6 -14 -14z"/>
<path d="M4790 6570 c0 -5 5 -10 11 -10 5 0 7 5 4 10 -3 6 -8 10 -11 10 -2 0
-4 -4 -4 -10z"/>
<path d="M6230 6565 c0 -28 4 -35 19 -35 10 0 22 7 25 16 10 26 -3 54 -25 54
-15 0 -19 -7 -19 -35z"/>
<path d="M5410 6554 c0 -27 14 -31 36 -9 9 8 25 15 36 15 37 0 9 14 -32 16
-36 2 -40 0 -40 -22z"/>
<path d="M5965 6570 c-3 -5 3 -10 15 -10 12 0 18 5 15 10 -3 6 -10 10 -15 10
-5 0 -12 -4 -15 -10z"/>
<path d="M5968 6533 c6 -2 18 -2 25 0 6 3 1 5 -13 5 -14 0 -19 -2 -12 -5z"/>
<path d="M6350 6570 c0 -5 7 -10 16 -10 8 0 12 5 9 10 -3 6 -10 10 -16 10 -5
0 -9 -4 -9 -10z"/>
<path d="M6355 6530 c4 -6 11 -8 16 -5 14 9 11 15 -7 15 -8 0 -12 -5 -9 -10z"/>
<path d="M6530 6570 c0 -5 7 -10 15 -10 8 0 15 5 15 10 0 6 -7 10 -15 10 -8 0
-15 -4 -15 -10z"/>
<path d="M6535 6530 c4 -6 11 -8 16 -5 14 9 11 15 -7 15 -8 0 -12 -5 -9 -10z"/>
<path d="M6784 6566 c-7 -19 3 -36 22 -36 10 0 14 8 12 22 -4 26 -26 36 -34
14z"/>
<path d="M6885 6570 c-3 -5 3 -10 15 -10 12 0 18 5 15 10 -3 6 -10 10 -15 10
-5 0 -12 -4 -15 -10z"/>
<path d="M6888 6533 c6 -2 18 -2 25 0 6 3 1 5 -13 5 -14 0 -19 -2 -12 -5z"/>
<path d="M7234 6566 c-7 -19 3 -36 22 -36 10 0 14 8 12 22 -4 26 -26 36 -34
14z"/>
<path d="M7855 6570 c-3 -5 1 -10 9 -10 9 0 16 5 16 10 0 6 -4 10 -9 10 -6 0
-13 -4 -16 -10z"/>
<path d="M7860 6529 c0 -5 5 -7 10 -4 6 3 10 8 10 11 0 2 -4 4 -10 4 -5 0 -10
-5 -10 -11z"/>
<path d="M2560 7670 c0 -5 5 -10 10 -10 6 0 10 5 10 10 0 6 -4 10 -10 10 -5 0
-10 -4 -10 -10z"/>
<path d="M8444 5989 c-18 -20 -18 -20 11 -13 37 8 39 10 30 23 -9 16 -20 13
-41 -10z"/>
<path d="M9940 5880 c0 -5 7 -10 16 -10 8 0 12 5 9 10 -3 6 -10 10 -16 10 -5
0 -9 -4 -9 -10z"/>
<path d="M8189 5158 c-2 -17 -2 -19 6 -51 9 -36 -13 -36 -44 -1 -28 33 -37 25
-17 -15 22 -42 20 -48 -9 -21 -14 13 -27 21 -30 18 -3 -3 1 -11 10 -18 16 -13
21 -40 7 -40 -4 0 -13 5 -20 12 -18 18 -15 2 8 -42 24 -47 24 -51 5 -44 -8 4
-15 12 -15 20 0 7 -9 28 -20 46 -16 26 -20 29 -26 15 -3 -10 -4 -31 -2 -47 6
-38 -13 -39 -42 -2 -14 17 -20 20 -16 9 3 -11 9 -31 12 -45 l6 -27 -27 30
c-19 22 -23 24 -16 8 6 -12 11 -29 11 -39 0 -16 -1 -16 -20 1 -19 17 -19 17
-10 -15 5 -17 14 -38 20 -45 6 -7 10 -17 9 -21 -5 -31 7 -48 57 -80 31 -20 53
-38 50 -41 -3 -3 -11 -1 -18 5 -22 18 -103 25 -129 11 -23 -12 -23 -12 -4 -20
17 -6 17 -8 3 -8 -10 -1 -18 -7 -18 -15 0 -8 -10 -22 -22 -30 -22 -16 -21 -16
20 -16 30 0 42 4 42 15 0 22 36 39 44 20 3 -8 13 -15 23 -16 12 -1 10 -3 -6
-8 -43 -12 -37 -30 6 -20 21 5 58 8 83 8 l45 0 -30 -16 c-16 -9 -61 -43 -100
-76 -38 -34 -74 -64 -79 -69 -16 -13 47 -31 67 -19 11 7 17 8 17 1 0 -5 7 -10
15 -10 8 0 15 5 15 11 0 5 13 15 30 20 16 6 32 18 35 27 3 10 19 32 35 51 27
31 34 34 85 35 30 1 55 -3 55 -8 0 -13 34 34 48 67 11 27 11 27 -23 27 -37 0
-42 8 -24 43 14 25 28 37 47 37 9 0 10 -5 2 -19 -17 -32 -12 -34 21 -7 17 14
39 26 50 26 11 0 17 5 14 10 -8 14 -52 13 -57 -1 -6 -17 -45 10 -52 36 -10 37
-6 90 9 118 14 26 13 30 -8 50 -13 12 -28 38 -34 58 -10 36 -71 128 -85 129
-5 0 -9 -6 -9 -12z m-62 -286 c-10 -10 -17 -24 -17 -31 0 -6 -7 -14 -15 -17
-11 -5 -12 -11 -4 -25 7 -13 6 -19 -1 -19 -6 0 -8 -5 -4 -11 4 -8 11 -4 19 11
8 15 15 19 19 11 4 -6 0 -18 -9 -27 -14 -14 -19 -14 -53 0 -20 8 -29 15 -19
15 9 1 17 8 17 17 0 11 -6 15 -20 11 -24 -6 -25 -1 -6 19 10 9 17 10 21 4 4
-6 21 5 41 25 34 36 61 50 31 17z m-2 -142 c-7 -11 63 -45 73 -35 4 3 1 9 -5
13 -17 11 1 34 20 26 13 -5 14 -10 5 -30 -13 -27 -39 -31 -101 -13 -29 8 -36
13 -28 23 6 7 8 16 4 19 -3 4 4 7 16 7 13 0 19 -4 16 -10z m-80 -18 c-3 -3
-11 0 -18 7 -9 10 -8 11 6 5 10 -3 15 -9 12 -12z m-42 1 c-7 -2 -19 -2 -25 0
-7 3 -2 5 12 5 14 0 19 -2 13 -5z"/>
<path d="M5818 5153 c6 -2 18 -2 25 0 6 3 1 5 -13 5 -14 0 -19 -2 -12 -5z"/>
<path d="M7276 5035 c4 -8 8 -15 10 -15 2 0 4 7 4 15 0 8 -4 15 -10 15 -5 0
-7 -7 -4 -15z"/>
<path d="M7088 4885 c3 -18 10 -25 26 -24 17 1 17 2 4 6 -10 2 -18 11 -18 18
0 8 -4 16 -9 19 -4 3 -6 -6 -3 -19z"/>
<path d="M7275 4760 c3 -5 8 -10 11 -10 2 0 4 5 4 10 0 6 -5 10 -11 10 -5 0
-7 -4 -4 -10z"/>
<path d="M8433 4763 c-15 -5 -17 -23 -4 -23 5 0 11 7 15 15 3 8 4 15 3 14 -1
0 -8 -3 -14 -6z"/>
<path d="M7861 4711 c-24 -13 -47 -17 -75 -14 -52 7 -37 -12 17 -21 28 -5 39
-3 43 8 3 8 16 17 30 20 13 4 24 11 24 16 0 12 2 13 -39 -9z"/>
<path d="M8318 4703 c7 -3 16 -2 19 1 4 3 -2 6 -13 5 -11 0 -14 -3 -6 -6z"/>
<path d="M7695 4651 c3 -5 -4 -12 -15 -16 -11 -3 -20 -14 -20 -23 1 -15 2 -16
13 -1 7 9 30 19 52 23 l40 8 -23 -22 c-12 -11 -26 -18 -31 -15 -17 10 -21 -12
-6 -25 8 -7 15 -19 15 -26 0 -10 9 -12 33 -7 41 8 47 13 14 13 -36 0 -43 18
-10 26 15 4 42 13 58 22 l30 15 -21 -24 c-12 -13 -24 -32 -27 -41 -4 -10 -13
-18 -22 -18 -8 0 -15 -4 -15 -10 0 -23 51 -2 88 37 29 32 28 51 -5 59 -16 4
-34 14 -41 23 -7 9 -12 12 -11 6 3 -24 -2 -35 -23 -46 -22 -12 -22 -11 -5 8
16 19 16 20 -8 31 -31 14 -69 16 -60 3z"/>
<path d="M7102 4610 c0 -14 2 -19 5 -12 2 6 2 18 0 25 -3 6 -5 1 -5 -13z"/>
<path d="M7421 4566 c-9 -11 -5 -18 24 -36 19 -12 41 -19 48 -17 9 4 9 6 -1 6
-8 1 -25 10 -38 20 -23 18 -24 20 -7 30 16 9 16 10 2 11 -9 0 -22 -6 -28 -14z"/>
<path d="M7148 4533 c12 -2 30 -2 40 0 9 3 -1 5 -23 4 -22 0 -30 -2 -17 -4z"/>
<path d="M7703 4523 c9 -2 25 -2 35 0 9 3 1 5 -18 5 -19 0 -27 -2 -17 -5z"/>
<path d="M5530 4481 c0 -12 9 -21 28 -25 15 -3 37 -8 50 -12 16 -5 22 -2 22 9
0 9 -19 21 -47 31 -57 20 -53 20 -53 -3z"/>
<path d="M8740 4255 c-11 -13 -8 -15 21 -15 43 0 79 10 79 21 0 16 -87 10
-100 -6z"/>
<path d="M9282 4247 c-15 -17 -18 -72 -6 -88 7 -9 8 -48 4 -109 -7 -93 -7 -94
-10 -30 -2 36 -4 72 -5 80 -1 21 -30 61 -38 54 -3 -4 -3 -35 0 -70 4 -45 2
-64 -6 -64 -6 0 -11 11 -11 25 0 14 -4 25 -9 25 -5 0 -11 12 -13 28 l-3 27
-280 2 c-154 2 -311 4 -349 7 l-68 3 6 -39 c7 -45 38 -77 74 -78 30 0 28 5
-14 34 -23 15 -31 26 -24 31 7 4 27 -8 48 -28 l37 -36 190 -5 c179 -5 299 2
337 18 12 6 17 2 20 -16 2 -16 18 -31 56 -50 30 -15 73 -43 97 -62 l42 -35 7
52 c11 96 7 224 -8 236 -7 6 -11 22 -9 36 4 20 2 24 -16 20 -15 -3 -21 1 -21
15 0 24 -15 33 -28 17z m-232 -171 c0 -3 -4 -8 -10 -11 -5 -3 -10 -1 -10 4 0
6 5 11 10 11 6 0 10 -2 10 -4z"/>
<path d="M4985 4080 c-3 -6 1 -7 9 -4 18 7 21 14 7 14 -6 0 -13 -4 -16 -10z"/>
<path d="M4930 4060 c0 -5 5 -10 10 -10 6 0 10 5 10 10 0 6 -4 10 -10 10 -5 0
-10 -4 -10 -10z"/>
<path d="M4657 3964 c-9 -96 -9 -144 2 -144 13 0 24 160 13 189 -7 20 -10 12
-15 -45z"/>
<path d="M7701 3950 c-29 -36 -32 -46 -26 -80 4 -21 13 -44 20 -50 7 -6 16
-29 20 -50 6 -35 11 -40 63 -61 57 -22 86 -45 76 -60 -7 -12 74 -32 140 -33
l59 -1 19 57 19 56 -43 41 c-30 27 -44 35 -46 26 -2 -8 -18 -19 -35 -24 -18
-5 -24 -10 -14 -10 25 -1 67 -31 67 -48 0 -16 -49 -62 -67 -63 -6 0 -17 25
-24 55 -7 30 -13 55 -13 55 -1 0 -15 -4 -33 -9 -31 -9 -35 -7 -108 70 l-75 79
21 41 c11 23 19 43 16 45 -2 2 -18 -14 -36 -36z"/>
<path d="M4786 3945 c24 -32 69 -51 80 -34 3 5 14 4 26 -2 14 -7 57 -9 132 -4
137 8 149 11 143 36 -3 12 0 19 9 19 8 0 14 3 14 8 0 4 -97 7 -214 8 l-215 1
25 -32z"/>
<path d="M4720 3911 c0 -23 2 -41 4 -41 8 0 12 71 4 76 -4 3 -8 -13 -8 -35z"/>
<path d="M6205 3934 c-101 -14 -157 -33 -232 -82 -67 -43 -104 -105 -118 -197
l-11 -70 -48 -3 -49 -3 7 67 c4 38 12 74 18 81 14 18 7 19 -162 32 -80 6 -154
14 -166 17 -11 3 -28 20 -38 39 -15 27 -16 37 -5 56 12 23 12 23 -14 6 -33
-21 -46 -21 -68 -1 -27 24 -41 14 -24 -18 13 -26 12 -29 -5 -38 -11 -6 -22
-21 -26 -35 -5 -21 -13 -25 -62 -30 -32 -3 -65 -11 -75 -16 -13 -7 -23 -7 -33
1 -7 7 -34 10 -59 8 -38 -3 -45 0 -45 14 0 16 -11 18 -82 19 -46 0 -121 4
-168 8 -47 4 -89 6 -93 3 -15 -8 46 -62 70 -62 13 0 23 -4 23 -9 0 -5 9 -13
20 -16 11 -3 20 -11 20 -16 0 -5 -11 -2 -25 7 -14 9 -27 15 -28 13 -36 -64
-39 -77 -23 -105 l15 -29 1 53 c0 55 4 59 44 40 27 -11 30 -19 40 -80 6 -32 4
-37 -16 -40 -18 -2 -23 -10 -24 -40 -3 -42 9 -56 31 -38 13 11 14 1 9 -78 -4
-61 -3 -92 5 -96 16 -10 19 5 31 142 7 91 7 135 -2 169 -9 36 -9 48 0 51 20 6
14 19 -20 41 -18 11 -28 21 -21 21 6 0 15 -4 18 -10 3 -5 28 -10 54 -10 42 0
49 -3 59 -26 14 -28 36 -23 27 7 -6 17 -1 19 34 19 21 0 47 3 56 6 13 5 15 2
9 -20 -9 -38 12 -33 54 12 19 20 30 30 25 22 -5 -8 -10 -35 -12 -60 -1 -25 -4
-57 -7 -72 -12 -59 45 -368 67 -368 11 0 11 7 -1 50 -24 83 -40 274 -30 360 5
47 10 88 10 93 0 4 5 7 11 7 7 0 9 -10 6 -25 -3 -20 0 -25 12 -24 35 3 51 -2
51 -15 0 -8 5 -27 10 -42 l11 -27 15 21 c8 12 20 22 25 22 14 0 39 -26 39 -39
0 -6 9 -11 20 -11 22 0 37 -53 26 -96 -6 -22 -4 -25 14 -19 14 5 20 2 20 -9 0
-9 7 -16 15 -16 11 0 15 11 15 37 0 26 3 34 11 26 15 -15 19 -59 12 -120 l-5
-53 -39 0 c-36 0 -39 2 -39 29 0 25 -4 29 -37 35 -62 10 -62 9 -58 -31 2 -21
4 -55 4 -75 l1 -38 78 0 78 0 13 -36 c7 -20 12 -71 11 -117 -1 -45 -2 -87 -1
-94 1 -6 18 -22 39 -34 20 -13 40 -27 44 -33 3 -5 21 -10 40 -10 18 -1 38 -5
45 -9 6 -4 18 -4 27 -1 26 10 76 -16 92 -47 8 -16 19 -29 24 -29 6 0 10 -9 10
-20 0 -13 9 -22 25 -26 14 -4 27 -5 29 -3 8 9 10 580 2 638 l-8 64 27 -21 c32
-25 65 -29 65 -8 0 8 -17 28 -37 45 l-38 31 42 0 c23 0 44 4 47 8 3 5 7 39 10
77 4 52 10 73 26 89 l21 21 47 -53 c26 -29 53 -52 60 -52 25 0 11 32 -48 107
-58 73 -72 106 -30 68 20 -18 21 -18 49 3 16 12 40 24 54 27 22 6 26 1 46 -48
24 -60 53 -93 71 -82 13 8 7 32 -27 108 -21 45 -31 57 -50 57 -27 0 -31 18 -7
27 10 4 22 -1 30 -12 12 -16 20 -17 79 -7 37 6 72 9 80 6 8 -4 15 -34 20 -89
4 -55 12 -88 22 -96 23 -20 35 8 29 66 -3 28 -6 62 -6 76 0 18 -6 28 -20 32
-11 3 -20 10 -20 16 0 6 9 11 20 11 11 0 20 -6 20 -12 0 -15 93 -48 132 -48
30 0 56 -24 38 -35 -7 -4 -17 -2 -23 4 -19 19 -24 13 -41 -54 -19 -76 -20
-111 -4 -121 16 -10 34 19 58 97 11 38 24 69 28 69 8 0 61 -51 98 -95 l26 -30
-22 40 c-43 81 -108 135 -213 175 -100 38 -191 49 -302 34z m-1273 -196 c-12
-12 -35 -1 -27 12 3 5 13 6 21 3 10 -4 12 -9 6 -15z m345 -54 c-3 -3 -12 -4
-19 -1 -8 3 -5 6 6 6 11 1 17 -2 13 -5z m100 -40 c-3 -3 -12 -4 -19 -1 -8 3
-5 6 6 6 11 1 17 -2 13 -5z m100 -18 c2 -2 1 -10 -3 -19 -5 -15 -9 -15 -35 -1
-39 20 -38 38 3 30 17 -3 33 -8 35 -10z m99 -19 c22 -6 39 -16 38 -22 -6 -17
8 -30 79 -74 37 -24 74 -41 82 -37 15 5 19 -8 29 -104 3 -25 2 -94 -2 -155
l-7 -110 -50 0 c-27 0 -52 2 -55 6 -3 3 -20 9 -38 12 -25 5 -31 4 -26 -6 4 -7
3 -8 -2 -4 -5 5 -9 16 -9 25 0 14 -8 16 -40 14 -26 -2 -35 0 -27 6 9 6 15 42
19 106 5 77 2 109 -12 159 -21 71 -32 88 -53 85 -8 -2 -17 3 -19 10 -6 15 21
16 50 1 15 -9 22 -9 25 -1 2 7 19 3 47 -10 25 -12 48 -18 52 -14 11 10 -38 49
-98 77 -27 12 -49 28 -49 36 0 16 13 16 66 0z m109 -7 c3 -6 26 -15 50 -21 42
-11 59 -33 48 -66 -4 -12 -133 63 -133 76 0 20 25 27 35 11z m-255 -69 c0 -20
-13 -41 -21 -35 -15 9 -10 44 6 44 8 0 15 -4 15 -9z m80 -141 c0 -5 -4 -10
-10 -10 -5 0 -10 5 -10 10 0 6 5 10 10 10 6 0 10 -4 10 -10z m0 -91 c0 -50 18
-51 23 -1 3 27 4 21 5 -22 2 -58 2 -58 -20 -44 -17 11 -23 27 -26 67 -2 37 0
51 7 47 6 -4 11 -25 11 -47z"/>
<path d="M8283 3878 c-6 -7 -13 -24 -16 -38 -3 -14 -8 -34 -12 -45 -5 -18 6
-28 79 -69 47 -26 89 -52 92 -57 3 -6 -6 -25 -20 -44 -31 -41 -32 -45 -5 -45
19 0 21 -4 15 -31 -5 -26 -2 -32 15 -36 15 -4 19 -11 15 -27 -3 -11 -8 -40
-12 -63 l-7 -43 -60 0 -59 0 5 28 c10 48 -16 56 -193 53 -245 -3 -465 28 -619
87 -30 12 -57 20 -59 18 -2 -2 6 -7 17 -11 12 -3 27 -13 35 -20 8 -8 24 -16
37 -19 59 -11 57 -4 51 -172 -3 -102 -1 -154 5 -154 7 0 12 52 15 135 2 74 8
139 14 145 6 6 37 3 92 -10 46 -11 107 -23 137 -26 53 -6 53 -7 49 -38 -2 -17
-6 -61 -10 -98 -3 -38 -10 -68 -15 -68 -5 0 -9 7 -9 15 0 16 -49 45 -76 45 -9
0 -22 7 -29 16 -11 15 -14 14 -34 -7 -14 -15 -20 -31 -17 -44 3 -11 6 -26 6
-32 0 -20 18 -15 25 7 14 44 89 49 104 7 12 -33 2 -54 -35 -72 -18 -8 -36 -20
-39 -26 -7 -10 -71 50 -67 64 6 21 -60 -18 -75 -45 -17 -32 -16 -47 2 -21 20
28 61 35 87 14 16 -14 19 -24 13 -49 -3 -18 -13 -32 -20 -32 -7 0 -20 -3 -29
-6 -9 -3 -26 5 -42 21 -22 22 -31 25 -45 17 -13 -8 -20 -8 -29 3 -7 8 -16 15
-21 15 -14 0 -11 -38 3 -42 8 -3 2 -14 -17 -31 -24 -20 -28 -28 -17 -38 18
-19 15 -29 -12 -29 -26 0 -48 -22 -53 -51 -3 -18 -2 -18 17 1 11 11 31 20 44
20 27 0 53 -24 36 -35 -5 -3 -10 -17 -10 -31 0 -15 -6 -24 -15 -24 -12 0 -11
-4 5 -20 20 -20 26 -65 12 -86 -4 -6 -25 -17 -47 -24 -100 -33 -104 -36 -95
-76 5 -19 10 -38 13 -40 2 -2 34 7 70 21 36 13 68 21 71 17 2 -4 7 -33 11 -64
4 -32 8 -58 9 -58 0 0 21 6 45 14 l44 13 -2 71 c-2 63 0 72 18 82 17 8 20 17
15 38 -4 15 -15 34 -26 42 -21 17 -15 30 13 30 10 0 23 9 29 21 6 11 17 18 23
16 7 -2 16 6 22 17 7 13 22 22 40 24 45 4 60 -11 56 -59 -1 -19 -47 -42 -64
-33 -9 5 -9 4 0 -6 17 -19 65 1 83 36 8 16 16 31 18 34 2 3 8 -3 14 -13 10
-18 11 -18 28 1 13 13 27 18 49 14 26 -4 31 -9 31 -31 0 -15 -6 -36 -14 -46
-22 -30 -9 -55 29 -55 30 0 33 3 44 44 10 40 14 45 43 48 31 3 33 7 55 78 13
41 25 81 28 87 3 10 10 10 30 1 30 -14 30 -19 5 -86 -25 -65 -25 -72 -1 -72
14 0 25 16 41 60 23 62 32 68 75 48 29 -13 29 -13 10 -68 -19 -55 -20 -52 17
-48 26 2 33 9 43 38 10 28 17 34 35 32 38 -4 50 -20 39 -48 -14 -39 -11 -44
21 -44 20 0 30 5 30 15 0 22 21 18 27 -4 4 -16 23 -24 87 -38 l81 -19 7 -49
c3 -28 7 -194 7 -371 1 -337 2 -344 47 -344 l22 0 -4 283 c-4 271 -4 281 13
249 19 -36 25 -38 139 -47 l82 -5 31 37 c29 35 32 37 45 21 7 -10 19 -52 26
-93 11 -64 10 -93 -4 -197 -16 -124 -14 -137 20 -138 17 0 20 13 34 150 15
136 7 119 110 242 23 28 30 22 30 -26 0 -40 3 -47 36 -66 28 -18 40 -20 57
-12 21 10 20 11 -10 17 -27 6 -37 17 -58 61 l-26 54 23 30 c12 17 25 30 29 30
3 0 23 -13 44 -30 21 -16 43 -30 49 -30 10 1 87 154 86 173 0 4 -38 7 -85 7
-47 0 -85 2 -85 5 0 3 23 50 50 105 28 55 50 102 50 105 0 4 -10 3 -22 -1 -13
-4 -30 -9 -38 -11 -8 -3 6 9 32 26 27 17 51 31 54 31 3 0 36 -19 72 -43 l67
-43 -5 -95 -5 -94 34 -30 c19 -16 49 -41 67 -55 18 -14 67 -67 110 -117 75
-91 78 -93 120 -93 23 0 49 -3 58 -6 11 -4 19 2 25 19 10 26 29 35 134 62 71
18 111 19 125 3 5 -7 13 -32 17 -56 8 -47 8 -48 79 -57 l48 -7 -5 39 c-4 21
-9 55 -13 75 -9 52 33 102 123 147 37 18 76 38 85 42 10 5 49 9 88 9 54 0 72
4 76 15 9 22 28 19 81 -14 71 -44 96 -47 135 -19 18 12 47 24 63 24 52 3 55 4
55 22 0 11 8 26 19 36 14 13 24 14 45 6 46 -17 90 -12 114 13 12 13 22 26 22
29 0 2 -19 10 -42 17 -59 18 -124 87 -157 168 -7 17 -22 39 -32 49 -15 13 -17
19 -7 26 22 14 83 9 108 -9 56 -40 123 -52 155 -30 17 13 15 14 -16 21 -18 3
-43 16 -55 27 -19 18 -49 24 -181 39 -87 9 -177 25 -200 35 -31 12 -57 15
-100 11 -32 -4 -103 -9 -158 -12 -121 -6 -147 -14 -81 -25 89 -14 98 -54 18
-85 -55 -22 -211 -26 -235 -6 -11 9 -27 10 -65 2 -51 -11 -306 -8 -434 6 -53
5 -75 3 -102 -10 -44 -21 -53 -20 -99 4 -46 25 -104 26 -130 3 -15 -14 -36
-18 -98 -16 l-79 1 16 -36 c8 -21 19 -41 24 -46 6 -6 1 -14 -13 -20 -12 -7
-23 -21 -25 -33 -3 -18 -14 -23 -73 -34 l-70 -12 -107 106 c-102 103 -105 106
-81 115 117 46 139 60 160 109 11 26 26 51 32 55 7 4 9 8 4 8 -4 0 20 53 52
119 l60 119 -72 7 c-40 3 -99 13 -132 20 -33 7 -117 22 -187 31 -71 10 -128
21 -128 25 0 4 14 12 30 19 17 7 29 14 27 16 -2 3 -20 -3 -40 -11 -34 -14 -87
-76 -87 -100 0 -6 -16 -37 -35 -70 -20 -32 -33 -60 -31 -63 3 -2 44 -9 92 -16
78 -10 88 -14 96 -36 20 -53 79 -282 74 -287 -10 -11 -243 200 -296 267 -30
38 -57 70 -61 70 -4 0 -17 -28 -29 -62 -13 -35 -29 -70 -37 -79 -7 -8 -13 -25
-13 -36 0 -11 -7 -33 -15 -49 -12 -24 -12 -37 -3 -67 14 -45 9 -51 -27 -37
-20 8 -25 15 -20 28 17 44 28 100 22 115 -13 34 -36 17 -58 -43 -12 -33 -27
-60 -35 -60 -9 0 -6 17 12 63 14 34 41 139 61 232 34 165 35 173 23 251 -7 44
-11 86 -9 93 3 7 17 2 41 -14 44 -30 48 -31 48 -6 0 13 -21 35 -57 60 -42 30
-51 41 -35 41 11 0 33 -11 48 -25 15 -14 37 -25 50 -25 19 0 24 -7 30 -47 4
-27 8 -110 8 -185 l1 -136 29 -6 c17 -4 34 -2 39 3 5 5 9 75 9 155 l-1 146 25
-6 c16 -4 24 -2 25 7 2 19 1 22 -6 42 -7 15 1 17 84 17 l92 0 -6 -34 c-10 -52
17 -55 57 -6 29 38 35 40 85 40 30 0 53 -5 53 -10 0 -7 6 -7 19 0 16 8 26 5
49 -15 35 -30 39 -30 45 -7 4 16 5 16 6 0 0 -10 3 -18 5 -18 14 0 216 101 216
108 0 18 -27 45 -34 34 -4 -6 -29 -14 -56 -18 -33 -4 -50 -11 -50 -20 0 -8 -4
-14 -10 -14 -12 0 -31 35 -23 44 3 3 1 6 -5 6 -6 0 -14 -4 -17 -10 -13 -21
-35 -10 -35 18 l0 29 -302 6 c-276 6 -482 18 -565 32 -23 4 -30 10 -26 20 6
18 -1 19 -14 3z m707 -123 c0 -16 -6 -25 -15 -25 -9 0 -15 9 -15 25 0 16 6 25
15 25 9 0 15 -9 15 -25z m-766 -457 c-25 -73 -47 -135 -50 -137 -17 -17 -12
27 16 139 30 120 34 130 56 130 l23 0 -45 -132z m-64 110 c-1 -24 -138 -500
-146 -508 -5 -5 -15 -5 -24 0 -10 6 -11 14 -4 32 5 13 8 33 6 46 -4 24 -48 52
-82 52 -27 0 -27 36 0 50 22 12 28 34 8 27 -7 -2 -21 9 -30 25 -10 15 -22 28
-28 28 -7 0 -7 6 0 20 7 14 17 19 29 15 15 -5 19 2 25 41 3 26 6 71 6 100 0
86 -3 84 126 84 85 0 114 -3 114 -12z m243 -45 c-7 -2 -19 -2 -25 0 -7 3 -2 5
12 5 14 0 19 -2 13 -5z m-30 -23 c30 0 34 -3 30 -20 -3 -11 -8 -20 -12 -20 -3
0 -6 -22 -7 -48 -1 -51 -43 -202 -56 -202 -11 0 -11 3 12 56 21 48 19 84 -4
84 -8 0 -19 -7 -26 -15 -7 -8 -9 -15 -6 -15 4 0 2 -9 -4 -20 -11 -21 -36 -26
-58 -11 -11 6 -7 29 19 112 38 126 36 121 59 109 10 -5 34 -10 53 -10z m-515
-210 c32 -30 28 -56 -13 -78 -26 -13 -95 6 -95 27 0 10 3 11 13 3 10 -8 13 -5
12 16 0 18 8 30 25 39 32 17 32 17 58 -7z m404 -40 c10 0 18 -5 18 -11 0 -7
-10 -9 -26 -5 -20 5 -27 3 -31 -14 -3 -11 -9 -20 -14 -20 -11 0 -11 0 2 39 8
23 15 29 22 22 6 -6 19 -11 29 -11z m-640 -10 c2 -6 20 -17 41 -24 37 -12 37
-13 17 -31 -19 -17 -20 -17 -27 1 -4 10 -18 28 -32 41 -14 12 -21 23 -14 23 6
0 13 -5 15 -10z m-8 -36 c10 -4 16 -18 16 -40 0 -28 -5 -36 -25 -44 -34 -13
-75 3 -75 30 0 50 36 73 84 54z m166 -33 c17 -32 12 -50 -19 -69 -15 -9 -28
-20 -29 -25 -2 -24 -11 -29 -17 -9 -4 12 -12 22 -17 22 -5 0 -6 5 -3 11 4 6 1
10 -6 8 -27 -3 -40 1 -34 12 4 6 12 8 19 6 6 -3 12 6 13 21 1 29 18 42 55 42
17 0 31 -7 38 -19z m186 -36 c9 -19 8 -28 -10 -50 -27 -34 -78 -39 -123 -12
-28 16 -31 22 -22 39 6 12 16 17 26 14 9 -4 21 1 29 13 26 36 83 34 100 -4z
m3029 -62 c50 -54 56 -73 23 -73 -32 1 -87 51 -98 88 -8 28 -6 32 12 32 11 0
39 -21 63 -47z m-3322 3 c24 -18 22 -63 -3 -76 -11 -6 -24 -8 -29 -6 -13 8
-18 85 -6 90 16 7 19 6 38 -8z m2759 -62 c9 -3 19 -13 23 -22 3 -10 29 -30 58
-46 101 -54 137 -78 132 -87 -8 -13 -87 -11 -143 3 -67 16 -172 103 -172 141
0 28 1 29 43 22 23 -3 50 -9 59 -11z m-1445 -44 l61 0 41 -65 c23 -36 43 -65
46 -65 2 0 52 29 110 65 57 36 107 65 110 65 2 0 3 -19 1 -42 -2 -24 -5 -65
-5 -93 -1 -48 -5 -54 -81 -138 -46 -50 -82 -82 -84 -75 -13 38 -34 153 -30
159 9 15 -104 102 -188 145 -86 43 -111 62 -65 50 12 -3 50 -6 84 -6z m858
-50 c-3 -5 -13 -10 -21 -10 -8 0 -14 5 -14 10 0 6 9 10 21 10 11 0 17 -4 14
-10z m69 -66 c22 -4 54 -16 71 -28 75 -49 74 -47 18 -43 -30 2 -58 11 -68 20
-9 9 -33 22 -54 28 -36 11 -39 14 -32 48 1 2 7 -1 14 -7 6 -6 30 -14 51 -18z"/>
<path d="M7925 3170 c3 -5 11 -10 16 -10 6 0 7 5 4 10 -3 6 -11 10 -16 10 -6
0 -7 -4 -4 -10z"/>
<path d="M7987 3850 c6 -24 5 -23 38 -8 35 16 31 28 -9 28 -29 0 -33 -3 -29
-20z"/>
<path d="M3380 3800 c0 -8 -8 -62 -16 -120 -29 -196 -29 -180 -1 -180 27 0 26
3 57 -129 11 -46 18 -86 16 -89 -3 -2 -42 23 -88 56 -59 43 -93 77 -118 116
-19 30 -38 52 -42 48 -5 -5 -24 -55 -43 -111 l-35 -104 46 -97 46 -97 60 -7
c104 -10 148 -8 148 9 0 19 9 19 30 0 15 -13 28 -14 86 -5 38 5 79 12 91 15
17 4 27 -5 51 -43 27 -43 30 -57 31 -140 2 -95 -6 -110 -38 -79 -11 10 -13 9
-9 -3 2 -8 13 -19 25 -24 19 -9 20 -21 26 -204 4 -108 7 -240 7 -294 l0 -99
33 3 32 3 -3 260 c-2 182 0 255 8 243 5 -9 13 -91 17 -182 3 -90 9 -170 13
-177 5 -7 18 -9 35 -5 l28 7 -6 72 c-4 40 -9 111 -13 160 l-7 87 51 0 50 0 17
53 c10 28 21 56 25 60 10 11 60 -13 60 -30 0 -9 14 -13 43 -13 76 0 71 18 77
-342 l5 -323 29 -3 29 -4 -6 258 -6 258 35 63 c27 47 42 64 62 69 15 3 45 9
67 14 22 4 54 6 72 3 25 -4 32 -10 35 -31 2 -16 10 -28 21 -30 14 -3 17 4 17
33 0 31 5 38 33 51 29 14 30 15 5 9 -23 -4 -28 -2 -28 14 0 11 5 23 10 26 6 4
8 11 5 16 -4 5 0 12 9 15 9 3 26 -6 43 -25 l28 -31 45 39 45 39 -57 28 -57 28
17 28 c16 28 16 28 -23 68 -22 22 -45 38 -52 36 -6 -3 -55 -37 -107 -75 -53
-39 -100 -71 -105 -71 -5 0 -15 46 -22 102 -12 97 -13 100 -28 78 -36 -54 -44
-58 -123 -65 l-77 -7 -77 116 c-81 122 -84 136 -31 152 12 3 61 30 108 60 51
32 98 54 114 54 15 0 53 -12 84 -27 46 -23 70 -28 129 -28 60 0 76 -3 87 -19
8 -10 20 -16 27 -13 8 3 21 -8 31 -25 16 -29 16 -30 -2 -35 -39 -10 -11 -203
29 -203 5 0 10 12 12 28 3 23 8 27 38 30 61 5 61 6 40 67 l-19 57 29 59 c31
61 31 66 1 49 -15 -7 -24 -1 -50 37 -18 25 -31 46 -29 47 30 22 77 42 89 39
12 -3 18 6 23 38 4 23 5 43 3 45 -2 2 -40 1 -85 -3 l-81 -6 -3 -85 -3 -84 -88
76 -87 77 -48 -7 c-26 -4 -57 -10 -68 -15 -17 -6 -28 0 -55 27 -18 19 -37 34
-42 34 -4 0 -65 -38 -134 -85 -124 -84 -152 -97 -154 -72 0 6 -8 64 -18 127
l-17 115 -44 -67 -45 -66 -85 -5 c-101 -5 -87 -16 -206 168 -46 72 -84 123
-84 115z m94 -387 c28 -13 36 -23 41 -56 7 -39 -2 -56 -31 -57 -12 0 -38 52
-48 98 -9 37 -8 37 38 15z m1096 -73 c0 -5 -2 -10 -4 -10 -3 0 -8 5 -11 10 -3
6 -1 10 4 10 6 0 11 -4 11 -10z m-798 -211 c2 -40 -1 -64 -9 -71 -9 -8 -13 -7
-13 3 -1 8 -3 40 -6 72 -5 46 -3 57 9 57 12 0 16 -15 19 -61z m138 -4 c0 -19
-10 -29 -40 -45 -44 -23 -48 -17 -23 35 12 25 23 35 40 35 18 0 23 -6 23 -25z
m-15 -85 c-5 -16 -2 -20 18 -20 15 0 27 -7 30 -17 3 -11 44 -35 105 -62 l100
-43 4 -49 c1 -27 2 -53 0 -58 -2 -5 -37 2 -78 16 -66 23 -74 29 -74 52 -1 14
-7 37 -16 51 -11 19 -14 20 -10 5 16 -63 18 -75 12 -75 -13 0 -136 94 -136
104 -1 6 -12 24 -25 41 l-25 30 38 22 c47 29 65 30 57 3z m354 -212 l39 -51
-21 -29 c-24 -33 -33 -35 -46 -10 -10 20 -26 142 -17 142 3 0 23 -23 45 -52z
m-9 -127 c0 -5 -7 -14 -15 -21 -13 -10 -15 -9 -15 9 0 12 6 21 15 21 8 0 15
-4 15 -9z"/>
<path d="M4578 3727 c-26 -15 -38 -29 -38 -45 0 -19 3 -21 17 -14 12 7 24 5
40 -5 26 -17 27 -15 13 23 -8 19 -7 30 1 40 19 23 6 23 -33 1z"/>
<path d="M7518 3633 c6 -2 18 -2 25 0 6 3 1 5 -13 5 -14 0 -19 -2 -12 -5z"/>
<path d="M7280 3614 c-74 -7 -161 -13 -193 -13 -55 -1 -57 -2 -41 -18 11 -12
30 -16 63 -14 l46 2 -32 -26 c-24 -19 -33 -35 -33 -56 0 -16 5 -29 12 -29 6 0
40 19 75 42 45 28 61 44 53 52 -15 15 -12 46 4 46 8 0 18 -5 22 -11 3 -6 17
-8 31 -4 32 8 22 -10 -18 -30 -22 -12 -29 -22 -29 -45 0 -19 5 -30 14 -30 17
0 156 79 156 89 0 4 -5 12 -12 19 -17 17 -7 23 47 27 26 2 50 6 53 9 8 8 -63
5 -218 -10z"/>
<path d="M5287 3593 c-14 -4 -16 -11 -10 -46 3 -23 7 -49 7 -57 1 -18 18 -39
27 -34 4 2 4 15 1 29 -2 15 0 25 8 25 7 0 9 -8 5 -20 -4 -11 -2 -20 4 -20 6 0
11 5 11 10 0 6 7 10 14 10 24 0 -2 59 -31 73 -13 6 -22 16 -19 24 3 7 4 12 3
12 -1 -1 -10 -3 -20 -6z"/>
<path d="M6860 3591 c-33 -9 -17 -17 50 -26 l54 -7 -26 -23 c-33 -28 -46 -80
-22 -89 10 -4 33 8 65 35 50 42 57 53 39 64 -5 3 -10 17 -10 31 0 23 -3 24
-62 23 -35 -1 -74 -4 -88 -8z"/>
<path d="M6750 3545 c0 -10 10 -15 31 -15 l32 0 -7 -46 c-3 -26 -6 -136 -6
-244 l0 -198 -85 -7 -85 -7 0 -133 c0 -109 3 -134 15 -139 12 -4 15 7 17 64 1
39 2 80 2 93 1 25 22 34 78 36 30 1 38 5 41 24 3 12 4 -26 3 -86 -1 -92 1
-108 16 -113 9 -2 19 -11 22 -19 19 -51 25 8 25 268 0 155 3 339 7 410 l7 127
-57 0 c-43 0 -56 -3 -56 -15z"/>
<path d="M6060 3401 c40 -47 41 -50 27 -78 -16 -30 -26 -110 -27 -207 l0 -59
-86 7 -87 6 7 -117 c8 -136 6 -133 106 -148 l65 -10 3 -38 3 -37 62 2 c50 1
53 2 20 5 -24 2 -43 8 -43 13 0 10 206 6 330 -5 138 -14 110 -25 -50 -21
l-155 5 140 -13 c77 -8 157 -17 178 -21 l37 -8 3 199 c3 313 1 339 -32 409
-56 114 -113 154 -230 162 -96 7 -145 -7 -189 -56 -20 -22 -35 -32 -40 -25
-28 41 -66 84 -74 84 -5 0 9 -22 32 -49z m475 -314 c18 -24 9 -46 -24 -59 -33
-14 -326 -10 -357 4 -29 14 -40 44 -23 64 10 13 42 15 202 12 170 -3 190 -5
202 -21z m-51 -113 c6 -15 -17 -43 -36 -44 -16 0 -38 13 -38 24 0 34 62 50 74
20z m-446 -60 c-3 -27 -4 -26 -9 8 -3 22 -1 34 4 29 5 -5 7 -21 5 -37z m440 0
c37 -6 51 -27 32 -49 -10 -12 -39 -15 -139 -15 -139 1 -209 11 -222 31 -15 24
-4 34 47 39 56 6 233 2 282 -6z"/>
<path d="M7231 3403 c-17 -16 -33 -40 -37 -55 -6 -27 -4 -28 30 -28 l36 0 2
53 2 52 3 -47 c4 -43 7 -48 29 -48 32 0 32 -28 -1 -36 -22 -5 -25 -12 -25 -51
0 -37 3 -44 16 -39 8 3 24 1 35 -4 18 -10 19 -6 19 94 0 97 -2 106 -22 120
-32 23 -54 20 -87 -11z"/>
<path d="M7136 3371 c-3 -20 -6 -73 -6 -118 0 -49 -4 -83 -10 -83 -5 0 -10
-13 -10 -29 0 -23 5 -30 25 -33 22 -5 25 -2 25 23 0 15 -6 30 -12 32 -7 3 -3
6 10 6 21 1 22 4 22 115 0 103 -2 114 -19 119 -15 4 -20 -2 -25 -32z"/>
<path d="M1913 3393 l-73 -4 0 -139 c0 -139 -11 -183 -24 -94 -3 26 -6 60 -6
75 0 28 -2 29 -50 29 -27 0 -50 -4 -50 -10 0 -5 -11 -10 -25 -10 -24 0 -25 -3
-26 -62 0 -48 -3 -58 -10 -43 -8 17 -9 16 -4 -5 6 -24 10 -53 13 -105 1 -14 8
-25 15 -25 9 0 20 29 32 78 24 104 23 102 33 102 5 0 27 -38 48 -85 21 -47 42
-85 47 -85 4 0 6 -4 3 -9 -8 -12 20 -22 38 -15 8 3 18 19 21 35 7 29 35 41 35
15 0 -7 7 -19 15 -26 12 -10 15 -9 15 8 0 33 -11 51 -26 45 -23 -9 -17 18 41
178 30 83 55 153 55 155 0 2 -10 3 -22 2 -13 -1 -56 -4 -95 -5z"/>
<path d="M4747 3394 c-4 -4 -7 -17 -7 -28 1 -19 1 -20 11 -3 11 19 8 43 -4 31z"/>
<path d="M5940 3316 c0 -5 78 -56 86 -56 4 0 -12 14 -34 30 -40 28 -52 35 -52
26z"/>
<path d="M7213 3283 c-20 -4 -23 -11 -23 -48 0 -40 2 -43 30 -47 32 -5 30 -11
34 79 1 18 -9 22 -41 16z"/>
<path d="M4817 3185 l-27 -46 20 -39 c33 -65 40 -59 40 39 0 50 -1 91 -3 91
-1 0 -14 -20 -30 -45z"/>
<path d="M940 3140 c0 -5 -11 -10 -25 -10 -24 0 -25 -2 -26 -67 -1 -38 -1 -72
1 -78 1 -5 4 -31 7 -57 3 -26 11 -48 17 -48 11 0 33 71 43 138 3 17 8 32 12
32 3 -1 16 -23 29 -50 13 -28 27 -50 32 -50 12 0 -9 58 -49 138 -30 60 -41 73
-41 52z"/>
<path d="M2033 3133 c-18 -2 -33 -10 -33 -16 -1 -7 -3 -34 -6 -62 -3 -27 -6
-56 -6 -62 -1 -7 -10 -13 -20 -13 -11 0 -18 -5 -15 -12 2 -7 9 -13 15 -12 7 1
23 2 36 3 20 1 30 15 60 85 20 47 36 87 36 90 0 6 -10 6 -67 -1z"/>
<path d="M1274 3073 c-26 -3 -33 -10 -38 -36 -4 -17 -4 -58 0 -89 8 -70 30
-78 58 -20 29 59 45 95 55 125 11 29 8 30 -75 20z"/>
<path d="M4950 3070 c0 -9 -9 -11 -30 -6 -16 3 -30 2 -30 -3 0 -13 39 -21 100
-20 54 1 54 1 20 11 -19 5 -41 14 -47 20 -9 7 -13 7 -13 -2z"/>
<path d="M5066 3054 c-17 -12 -17 -14 -4 -14 9 0 20 5 23 11 11 17 2 18 -19 3z"/>
<path d="M7262 3050 c0 -14 2 -19 5 -12 2 6 2 18 0 25 -3 6 -5 1 -5 -13z"/>
<path d="M7116 3014 c-9 -67 -7 -182 2 -188 5 -3 22 -1 38 4 16 4 21 9 12 9
-16 1 -18 13 -18 111 0 86 -3 110 -14 110 -8 0 -16 -17 -20 -46z"/>
<path d="M5358 3043 c6 -2 18 -2 25 0 6 3 1 5 -13 5 -14 0 -19 -2 -12 -5z"/>
<path d="M6982 3037 c-11 -14 -24 -235 -14 -241 10 -6 115 15 126 25 5 4 0 6
-10 4 -10 -2 -33 -6 -49 -9 l-30 -5 0 116 c0 114 -4 134 -23 110z"/>
<path d="M7250 2940 c0 -47 4 -80 10 -80 6 0 10 33 10 80 0 47 -4 80 -10 80
-6 0 -10 -33 -10 -80z"/>
<path d="M858 2939 c29 -52 38 -50 28 5 -5 25 -13 35 -31 38 l-25 5 28 -48z"/>
<path d="M1373 2983 c-35 -4 -37 -10 -27 -62 5 -21 12 -31 25 -31 15 0 19 -10
21 -62 3 -55 6 -63 24 -66 17 -2 30 12 68 76 25 43 46 82 46 85 0 4 -24 7 -54
7 -47 0 -56 -3 -61 -21 -4 -11 -9 -18 -11 -16 -3 3 2 22 10 42 19 45 20 55 4
53 -7 0 -28 -3 -45 -5z"/>
<path d="M7349 2950 c-6 -45 -4 -58 7 -48 3 3 4 26 2 49 l-3 44 -6 -45z"/>
<path d="M1617 2954 c-11 -19 35 -35 68 -25 29 9 29 9 -12 10 -23 1 -43 6 -45
13 -3 8 -7 9 -11 2z"/>
<path d="M1733 2947 c-3 -5 0 -13 6 -17 7 -4 11 -11 10 -16 -5 -17 24 -64 43
-70 37 -11 159 7 179 27 13 13 33 19 64 19 35 0 47 4 55 21 13 24 6 37 -12 21
-7 -5 -30 -13 -50 -17 -30 -6 -39 -4 -44 9 -5 12 -10 14 -19 6 -16 -14 -158
-35 -180 -26 -12 4 -15 13 -11 29 4 18 1 23 -15 23 -11 0 -23 -4 -26 -9z"/>
<path d="M1202 2878 c-7 -7 -12 -20 -12 -30 0 -14 8 -18 33 -17 32 0 32 0 7
12 -35 15 -34 15 -20 32 15 18 9 20 -8 3z"/>
<path d="M2388 2834 c-33 -17 -48 -31 -48 -44 0 -11 1 -20 3 -20 1 0 33 16 71
34 62 31 66 35 48 45 -25 13 -18 15 -74 -15z"/>
<path d="M7269 2837 c-24 -19 -28 -50 -13 -114 8 -32 14 -61 14 -64 0 -4 -34
-19 -76 -34 -86 -31 -88 -31 -99 44 -9 61 -19 78 -49 83 -49 10 -68 -43 -48
-132 13 -55 6 -64 -71 -92 -40 -14 -71 -30 -70 -35 1 -4 5 -21 9 -37 7 -28 6
-29 -26 -23 -18 4 -48 7 -66 7 -24 0 -34 5 -34 15 0 8 -4 15 -10 15 -5 0 -10
-4 -10 -8 0 -10 -61 -33 -71 -26 -13 8 -11 -5 8 -54 15 -40 18 -43 42 -36 14
4 38 8 53 8 14 1 24 4 21 9 -2 4 2 7 9 7 8 0 31 9 51 19 21 11 72 32 113 47
86 31 89 30 99 -48 8 -53 14 -56 70 -32 40 17 40 15 19 120 -6 30 -5 31 70 58
41 15 79 25 84 22 5 -3 14 -30 21 -60 12 -53 31 -85 31 -52 0 9 -16 83 -35
165 -40 168 -42 197 -18 223 18 20 6 24 -18 5z"/>
<path d="M5615 2813 c-7 -28 6 -43 38 -43 25 0 21 35 -7 53 -23 16 -24 15 -31
-10z"/>
<path d="M847 2824 c-3 -3 -3 -12 0 -20 7 -18 55 -17 108 1 l40 14 -58 -5
c-35 -3 -63 -1 -71 5 -7 6 -15 8 -19 5z"/>
<path d="M6905 2800 c-4 -6 5 -10 19 -10 14 0 26 5 26 10 0 6 -9 10 -19 10
-11 0 -23 -4 -26 -10z"/>
<path d="M5670 2745 c0 -11 11 -15 43 -14 27 1 33 3 17 6 -14 3 -29 9 -34 14
-15 14 -26 11 -26 -6z"/>
<path d="M4750 2685 c0 -23 4 -25 45 -25 41 0 45 2 45 25 0 23 -4 25 -45 25
-41 0 -45 -2 -45 -25z"/>
<path d="M546 2653 c-59 -45 -59 -47 -35 -56 13 -5 65 -27 114 -48 59 -26 104
-39 130 -38 l40 1 -32 9 c-30 9 -33 13 -33 50 0 22 4 48 10 58 8 16 0 22 -58
45 -37 14 -70 26 -72 26 -3 0 -32 -21 -64 -47z"/>
<path d="M4630 2675 c0 -14 5 -25 10 -25 6 0 10 11 10 25 0 14 -4 25 -10 25
-5 0 -10 -11 -10 -25z"/>
<path d="M2700 2680 c-13 -8 -13 -10 2 -10 9 0 20 5 23 10 8 13 -5 13 -25 0z"/>
<path d="M3290 2649 c0 -12 24 -22 45 -17 12 2 7 7 -14 15 -18 6 -31 7 -31 2z"/>
<path d="M6700 2635 c-8 -10 -9 -24 -4 -42 l8 -28 4 30 c2 17 11 36 20 43 14
11 14 12 0 12 -8 0 -21 -7 -28 -15z"/>
<path d="M2891 2611 c-8 -6 -9 -11 -3 -15 6 -3 14 -1 17 5 9 14 2 20 -14 10z"/>
<path d="M2330 2579 c-74 -33 -304 -95 -495 -133 -358 -70 -761 -116 -1046
-117 -176 0 -183 -7 -39 -35 369 -71 986 -2 1365 153 135 55 211 94 250 127
36 30 26 32 -35 5z"/>
<path d="M364 2496 c3 -27 6 -57 6 -67 0 -21 54 -64 93 -73 26 -6 27 -5 27 33
0 79 -9 99 -49 106 -20 4 -47 16 -60 28 l-24 22 7 -49z"/>
<path d="M3068 2533 c7 -3 16 -2 19 1 4 3 -2 6 -13 5 -11 0 -14 -3 -6 -6z"/>
<path d="M9565 2510 c-4 -6 1 -20 11 -31 16 -17 16 -22 4 -29 -28 -18 23 -10
65 11 l40 19 -39 -3 c-29 -1 -42 4 -56 21 -12 14 -21 18 -25 12z"/>
<path d="M3235 2470 c-3 -5 1 -10 9 -10 9 0 16 5 16 10 0 6 -4 10 -9 10 -6 0
-13 -4 -16 -10z"/>
<path d="M4650 2410 c0 -23 4 -30 20 -30 25 0 28 45 4 54 -23 9 -24 8 -24 -24z"/>
<path d="M8320 2365 c0 -8 1 -15 3 -15 1 0 27 -9 57 -21 l55 -20 -26 24 c-46
44 -89 60 -89 32z"/>
<path d="M5480 2255 c0 -41 2 -45 25 -45 21 0 25 5 25 31 0 29 -21 58 -42 59
-5 0 -8 -20 -8 -45z"/>
<path d="M5660 2195 c0 -10 10 -15 33 -14 17 0 25 3 17 6 -8 3 -23 10 -32 15
-13 6 -18 5 -18 -7z"/>
<path d="M6625 2140 c-16 -4 -61 -9 -100 -11 -66 -3 -67 -3 -17 -6 28 -2 52
-8 52 -12 0 -19 -29 -59 -75 -104 -47 -46 -51 -48 -100 -46 -58 3 -82 -6 -66
-25 8 -9 1 -22 -24 -46 -32 -31 -45 -60 -27 -60 4 0 23 -10 42 -21 l35 -22
-25 -9 c-13 -5 -60 -11 -105 -14 -44 -3 -92 -10 -106 -15 -21 -8 -33 -6 -58 9
-17 10 -28 22 -24 25 3 4 -3 7 -15 7 -11 0 -28 3 -38 7 -13 5 -16 3 -11 -9 4
-12 1 -14 -14 -11 -27 7 -24 -2 16 -41 l34 -35 -35 -20 c-38 -23 -104 -27
-248 -15 l-77 7 47 33 c26 19 49 36 52 39 12 12 -23 33 -66 39 l-47 6 1 47 c2
87 -89 207 -168 218 -24 3 -26 3 -9 -3 23 -7 23 -9 22 -143 -2 -147 -8 -187
-32 -202 -23 -15 -64 -1 -76 26 -12 26 -17 203 -7 276 6 47 8 50 38 54 29 4
28 4 -7 5 -36 2 -89 -18 -112 -42 -62 -66 -70 -232 -14 -309 12 -16 18 -31 16
-34 -3 -3 -34 -9 -69 -13 -59 -8 -66 -6 -112 21 -27 17 -50 28 -51 27 -2 -2
-6 -20 -10 -40 -7 -37 -7 -38 23 -38 47 0 46 -14 -4 -38 -45 -22 -64 -46 -48
-62 5 -4 38 -11 74 -15 36 -3 102 -11 148 -17 l83 -10 83 40 82 39 85 -42 c46
-23 131 -69 189 -101 58 -33 135 -72 171 -87 l67 -28 -5 -62 c-4 -56 -8 -65
-41 -94 -21 -18 -32 -33 -27 -33 6 0 -28 -17 -75 -36 -112 -47 -150 -66 -150
-74 0 -4 48 -17 108 -28 59 -12 127 -28 152 -38 25 -9 106 -24 180 -34 127
-16 138 -16 197 0 44 12 76 29 114 63 49 43 55 45 74 33 20 -14 22 -28 10 -77
-10 -37 18 -95 54 -114 27 -14 35 -14 65 -1 41 17 56 42 56 91 0 39 47 135 66
135 6 0 23 9 36 20 25 19 26 19 97 0 39 -11 82 -20 95 -20 14 0 32 -8 42 -17
13 -13 31 -17 78 -15 81 3 98 9 91 31 -3 10 1 24 9 30 13 11 15 0 15 -81 1
-98 15 -240 27 -272 7 -18 -18 -18 -994 -14 -551 2 -1000 3 -999 1 2 -1 43
-12 92 -24 88 -21 108 -22 1015 -26 l925 -5 770 161 c494 104 785 169 813 183
23 11 41 22 39 24 -2 3 -899 -176 -1431 -285 -82 -17 -157 -31 -166 -31 -14 0
-15 8 -8 67 4 38 12 155 17 261 6 123 14 198 22 208 8 10 9 30 4 67 -5 28 -9
100 -9 160 -1 107 -11 144 -19 65 -2 -24 -4 -5 -4 42 0 61 2 75 7 50 5 -23 8
6 9 86 1 132 -6 187 -23 181 -13 -4 -24 -53 -39 -171 -7 -54 -17 -91 -24 -94
-7 -2 -13 3 -13 12 0 9 -6 16 -14 16 -8 0 -16 6 -19 13 -3 9 -7 9 -20 -1 -13
-11 -31 -12 -94 -3 -238 35 -235 35 -248 17 -19 -26 -24 -19 -20 32 3 26 5 89
6 141 1 54 7 108 15 127 22 52 18 97 -10 124 -37 34 -137 49 -211 30z m139
-90 c5 -5 23 -10 38 -10 31 0 48 -24 29 -43 -8 -8 -14 -7 -23 6 -12 15 -24 16
-112 8 -157 -15 -205 6 -95 41 56 19 143 18 163 -2z m-67 -56 c-3 -3 -12 -4
-19 -1 -8 3 -5 6 6 6 11 1 17 -2 13 -5z m98 -24 c3 -5 1 -10 -4 -10 -6 0 -11
5 -11 10 0 6 2 10 4 10 3 0 8 -4 11 -10z m-38 -62 c-3 -8 -6 -5 -6 6 -1 11 2
17 5 13 3 -3 4 -12 1 -19z m-30 -44 c-9 -9 -28 6 -21 18 4 6 10 6 17 -1 6 -6
8 -13 4 -17z m58 -111 c-7 -73 -10 -79 -32 -65 -20 13 -11 144 13 179 l19 28
3 -35 c2 -19 1 -68 -3 -107z m532 -40 c-2 -27 -3 -5 -3 47 0 52 1 74 3 48 2
-27 2 -69 0 -95z m-622 109 c0 -18 -20 -15 -23 4 -3 10 1 15 10 12 7 -3 13
-10 13 -16z m-35 -31 c0 -5 -7 -12 -16 -15 -14 -5 -15 -4 -4 9 14 17 20 19 20
6z m37 -51 c-1 -31 -5 -40 -18 -40 -26 0 -29 25 -6 54 11 14 22 26 23 26 1 0
1 -18 1 -40z m-77 5 c0 -8 -7 -15 -15 -15 -8 0 -15 7 -15 15 0 8 7 15 15 15 8
0 15 -7 15 -15z m-60 -35 c0 -5 -2 -10 -4 -10 -3 0 -8 5 -11 10 -3 6 -1 10 4
10 6 0 11 -4 11 -10z m-40 -30 c0 -5 -4 -10 -10 -10 -5 0 -10 5 -10 10 0 6 5
10 10 10 6 0 10 -4 10 -10z m-164 -28 c38 -11 60 -24 62 -35 4 -21 -24 -23
-35 -2 -10 18 -245 39 -337 30 -52 -5 -58 -4 -41 7 23 14 166 28 241 22 28 -2
77 -12 110 -22z m-743 -9 c-7 -2 -19 -2 -25 0 -7 3 -2 5 12 5 14 0 19 -2 13
-5z m1557 -23 c0 -6 -27 -10 -62 -9 -47 1 -57 3 -38 9 36 12 100 12 100 0z
m-1380 -20 c0 -21 -6 -23 -77 -24 -54 -1 -50 15 8 30 63 17 69 16 69 -6z
m1220 -10 c0 -29 -1 -30 -48 -30 -26 0 -63 -4 -81 -10 -27 -8 -38 -6 -51 5 -9
8 -20 12 -25 8 -4 -5 -5 0 -2 10 4 10 7 22 7 27 0 13 28 18 118 19 l82 1 0
-30z m-669 5 c-1 -15 -24 -12 -29 3 -3 9 2 13 12 10 10 -1 17 -7 17 -13z
m-123 -1 c12 -4 22 -10 22 -15 0 -5 -10 -9 -22 -9 -34 0 -68 11 -68 21 0 10
34 12 68 3z m962 -32 c14 -10 33 -21 44 -25 14 -6 17 -14 13 -35 -4 -15 -12
-56 -18 -92 l-12 -64 -13 34 -12 35 -1 -42 c-1 -39 -3 -42 -23 -39 -13 3 -26
5 -30 5 -9 1 -3 75 8 92 15 25 12 69 -5 69 -9 1 -29 7 -46 15 l-30 15 45 -6
c33 -4 42 -3 34 5 -5 6 -30 12 -55 14 -24 2 -43 6 -41 10 1 4 2 14 2 23 0 14
8 16 58 10 31 -3 68 -15 82 -24z m70 -3 c0 -18 -2 -19 -15 -9 -8 7 -15 16 -15
21 0 5 7 9 15 9 9 0 15 -9 15 -21z m-1287 -16 c3 -5 -12 -8 -34 -8 -22 -1 -33
2 -26 7 15 10 54 10 60 1z m387 -3 c0 -5 -18 -10 -41 -10 -24 0 -38 4 -34 10
3 6 22 10 41 10 19 0 34 -4 34 -10z m448 -17 c-3 -25 0 -28 32 -30 191 -14
186 -10 164 -155 -21 -136 -26 -155 -31 -141 -2 7 -20 15 -39 19 -30 5 -34 10
-35 38 0 17 -4 40 -9 51 -8 18 -9 17 -9 -7 -1 -15 -5 -29 -10 -32 -15 -9 -251
80 -251 95 0 3 27 12 60 19 53 11 62 11 78 -4 27 -23 46 -20 22 4 -23 23 -21
66 9 132 19 45 23 47 19 11z m-58 -12 c0 -27 -29 -54 -49 -46 -9 4 -31 9 -49
12 -39 7 -53 23 -20 23 13 1 34 7 48 15 37 21 70 19 70 -4z m-779 -13 c11 -21
11 -22 -4 -9 -9 7 -24 11 -32 7 -15 -5 -21 5 -8 17 13 14 33 7 44 -15z m1159
-30 c0 -6 -7 -7 -16 -4 -9 3 -22 6 -30 6 -8 0 -14 4 -14 8 0 5 14 7 30 4 17
-2 30 -9 30 -14z m-34 -38 c18 0 24 -5 24 -21 0 -22 -2 -22 -52 3 -29 14 -39
34 -12 24 9 -3 27 -6 40 -6z m231 -42 c-3 -8 -6 -5 -6 6 -1 11 2 17 5 13 3 -3
4 -12 1 -19z m-213 -39 c5 -5 7 -12 3 -15 -8 -9 -67 16 -67 27 0 11 50 1 64
-12z m232 -83 c-4 -17 -13 -26 -26 -26 -24 0 -35 16 -15 24 8 3 15 18 15 33 0
25 1 26 16 11 11 -11 14 -25 10 -42z m-252 38 c27 -10 18 -25 -11 -18 -37 9
-53 24 -26 24 12 0 28 -3 37 -6z m-984 -14 c9 0 4 -9 -15 -25 -39 -32 -45 -31
-45 6 0 28 3 31 23 25 12 -3 29 -6 37 -6z m1217 -102 c-3 -8 -6 -5 -6 6 -1 11
2 17 5 13 3 -3 4 -12 1 -19z m-45 -64 c-7 -54 -17 -39 -13 18 2 33 6 46 10 35
4 -10 5 -34 3 -53z m-646 -16 c-7 -75 -17 -98 -45 -98 -25 0 -65 45 -55 62 18
31 87 108 96 108 7 0 9 -24 4 -72z m459 32 c4 -7 -3 -8 -22 -4 -38 9 -42 14
-10 14 14 0 29 -5 32 -10z m-1105 -22 c0 -25 -16 -36 -72 -53 -56 -16 -88 -36
-88 -56 0 -10 -75 -1 -100 12 -12 6 -12 9 5 15 32 12 105 41 170 68 68 29 85
31 85 14z m1277 -95 c-3 -10 -5 -2 -5 17 0 19 2 27 5 18 2 -10 2 -26 0 -35z
m19 -134 c15 -85 10 -197 -8 -166 -10 19 -24 265 -14 256 4 -4 14 -44 22 -90z"/>
<path d="M6645 2040 c-4 -6 5 -10 19 -10 14 0 26 5 26 10 0 6 -9 10 -19 10
-11 0 -23 -4 -26 -10z"/>
<path d="M4677 1531 c-7 -30 66 -44 163 -32 41 6 81 11 88 11 6 0 12 7 12 15
0 14 -3 14 -30 0 -46 -24 -124 -17 -211 19 -11 5 -18 1 -22 -13z"/>
<path d="M5336 1433 c-4 -19 -22 -45 -42 -61 -32 -27 -37 -28 -103 -21 -79 9
-118 30 -136 72 l-12 30 -7 -39 c-4 -22 -9 -47 -12 -56 -12 -40 188 -47 265
-10 25 12 38 28 48 56 7 22 12 45 10 50 -2 6 -7 -4 -11 -21z"/>
<path d="M5700 1250 c0 -15 7 -20 27 -20 25 0 26 0 8 20 -10 11 -22 20 -27 20
-4 0 -8 -9 -8 -20z"/>
</g>
</svg>
